<svg width="28" height="28" viewBox="0 0 28 28" fill="none" xmlns="http://www.w3.org/2000/svg">
<path d="M22.8 2H5.2C4.35131 2 3.53737 2.33714 2.93726 2.93726C2.33714 3.53737 2 4.35131 2 5.2V22.8C2 23.6487 2.33714 24.4626 2.93726 25.0627C3.53737 25.6629 4.35131 26 5.2 26H22.8C23.6487 26 24.4626 25.6629 25.0627 25.0627C25.6629 24.4626 26 23.6487 26 22.8V5.2C26 4.35131 25.6629 3.53737 25.0627 2.93726C24.4626 2.33714 23.6487 2 22.8 2Z" stroke="black" stroke-opacity="0.86" stroke-width="3.31697" stroke-miterlimit="10"/>
<path d="M2 18H26M2 10H26M10 26V2M18 26V2" stroke="black" stroke-opacity="0.86" stroke-width="3.31697" stroke-miterlimit="10" stroke-linecap="round"/>
</svg>
