<svg width="24" height="24" viewBox="0 0 24 24" fill="none" xmlns="http://www.w3.org/2000/svg">
<path d="M23.9999 2.57153H9.33325V4.28582H23.9999V2.57153Z" fill="black" fill-opacity="0.86"/>
<path d="M0 3.42858C0 4.10669 0.20853 4.76957 0.599219 5.3334C0.989909 5.89722 1.54521 6.33667 2.1949 6.59617C2.8446 6.85567 3.5595 6.92357 4.24921 6.79128C4.93892 6.65899 5.57246 6.33245 6.06971 5.85295C6.56697 5.37346 6.9056 4.76254 7.04279 4.09746C7.17998 3.43238 7.10957 2.74301 6.84046 2.11652C6.57135 1.49003 6.11562 0.954557 5.53092 0.57782C4.94621 0.201083 4.25878 0 3.55556 0C2.61289 0.00102091 1.70913 0.362573 1.04257 1.00533C0.376001 1.6481 0.00105871 2.51958 0 3.42858ZM3.55556 1.71429C3.90717 1.71429 4.25088 1.81483 4.54324 2.0032C4.83559 2.19157 5.06345 2.4593 5.19801 2.77255C5.33256 3.08579 5.36777 3.43048 5.29917 3.76302C5.23058 4.09556 5.06126 4.40102 4.81263 4.64076C4.56401 4.88051 4.24724 5.04378 3.90238 5.10993C3.55753 5.17607 3.20008 5.14213 2.87523 5.01238C2.55038 4.88263 2.27273 4.6629 2.07739 4.38099C1.88204 4.09907 1.77778 3.76763 1.77778 3.42858C1.77831 2.97408 1.96578 2.53834 2.29906 2.21696C2.63234 1.89558 3.08422 1.7148 3.55556 1.71429Z" fill="black" fill-opacity="0.86"/>
<path d="M23.9999 11.1431H9.33325V12.8574H23.9999V11.1431Z" fill="black" fill-opacity="0.86"/>
<path d="M3.55556 15.4284C4.25878 15.4284 4.94621 15.2274 5.53092 14.8506C6.11562 14.4739 6.57135 13.9384 6.84046 13.3119C7.10957 12.6854 7.17998 11.9961 7.04279 11.331C6.9056 10.6659 6.56697 10.055 6.06971 9.5755C5.57246 9.096 4.93892 8.76946 4.24921 8.63717C3.5595 8.50488 2.8446 8.57277 2.1949 8.83228C1.54521 9.09178 0.989909 9.53123 0.599219 10.0951C0.20853 10.6589 0 11.3218 0 11.9999C0.00105871 12.9089 0.376001 13.7804 1.04257 14.4231C1.70913 15.0659 2.61289 15.4274 3.55556 15.4284ZM3.55556 10.2856C3.90717 10.2856 4.25088 10.3861 4.54324 10.5745C4.83559 10.7629 5.06345 11.0306 5.19801 11.3438C5.33256 11.6571 5.36777 12.0018 5.29917 12.3343C5.23058 12.6669 5.06126 12.9723 4.81263 13.2121C4.56401 13.4518 4.24724 13.6151 3.90238 13.6812C3.55753 13.7474 3.20008 13.7134 2.87523 13.5837C2.55038 13.4539 2.27273 13.2342 2.07739 12.9523C1.88204 12.6704 1.77778 12.3389 1.77778 11.9999C1.77831 11.5454 1.96578 11.1096 2.29906 10.7882C2.63234 10.4669 3.08422 10.2861 3.55556 10.2856Z" fill="black" fill-opacity="0.86"/>
<path d="M23.9999 19.7139H9.33325V21.4282H23.9999V19.7139Z" fill="black" fill-opacity="0.86"/>
<path d="M3.55556 24C4.25878 24 4.94621 23.7989 5.53092 23.4222C6.11562 23.0454 6.57135 22.51 6.84046 21.8835C7.10957 21.257 7.17998 20.5676 7.04279 19.9025C6.9056 19.2374 6.56697 18.6265 6.06971 18.147C5.57246 17.6675 4.93892 17.341 4.24921 17.2087C3.5595 17.0764 2.8446 17.1443 2.1949 17.4038C1.54521 17.6633 0.989909 18.1028 0.599219 18.6666C0.20853 19.2304 0 19.8933 0 20.5714C0.00105871 21.4804 0.376001 22.3519 1.04257 22.9946C1.70913 23.6374 2.61289 23.999 3.55556 24ZM3.55556 18.8571C3.90717 18.8571 4.25088 18.9577 4.54324 19.146C4.83559 19.3344 5.06345 19.6021 5.19801 19.9154C5.33256 20.2286 5.36777 20.5733 5.29917 20.9058C5.23058 21.2384 5.06126 21.5438 4.81263 21.7836C4.56401 22.0233 4.24724 22.1866 3.90238 22.2528C3.55753 22.3189 3.20008 22.285 2.87523 22.1552C2.55038 22.0254 2.27273 21.8057 2.07739 21.5238C1.88204 21.2419 1.77778 20.9105 1.77778 20.5714C1.77831 20.1169 1.96578 19.6812 2.29906 19.3598C2.63234 19.0384 3.08422 18.8576 3.55556 18.8571Z" fill="black" fill-opacity="0.86"/>
</svg>
